<?xml version="1.0" standalone="no"?>
<!DOCTYPE svg PUBLIC "-//W3C//DTD SVG 20010904//EN"
 "http://www.w3.org/TR/2001/REC-SVG-20010904/DTD/svg10.dtd">
<svg version="1.0" xmlns="http://www.w3.org/2000/svg"
 width="512.000000pt" height="512.000000pt" viewBox="0 0 512.000000 512.000000"
 preserveAspectRatio="xMidYMid meet">

<g transform="translate(0.000000,512.000000) scale(0.100000,-0.100000)"
fill="#000000" stroke="none">
<path d="M1235 5098 c-19 -17 -31 -47 -49 -118 -37 -150 -41 -201 -17 -232 26
-32 50 -39 88 -23 35 15 44 38 64 159 l12 79 66 -6 c110 -10 340 -80 396 -120
17 -13 15 -16 -30 -47 -114 -79 -250 -241 -347 -415 l-52 -94 -16 42 c-9 23
-22 68 -29 100 -16 74 -40 99 -88 95 -26 -2 -42 -11 -57 -31 l-21 -28 27 -103
c14 -56 42 -138 63 -182 l36 -81 -39 -99 c-48 -121 -82 -215 -212 -593 -211
-611 -317 -788 -493 -822 -88 -18 -101 -34 -95 -124 9 -131 81 -248 202 -326
77 -51 147 -76 268 -97 l100 -17 13 -39 c31 -88 133 -166 220 -166 42 0 43 -1
50 -39 7 -40 51 -141 78 -176 14 -19 10 -25 -78 -116 -95 -98 -208 -242 -247
-316 -27 -50 -18 -89 24 -112 43 -24 76 -6 127 69 66 100 139 189 205 255 l61
59 7 -44 c29 -167 133 -312 278 -389 115 -60 125 -61 810 -61 540 0 633 2 689
16 207 51 361 218 399 435 l8 44 68 -70 c298 -306 456 -704 456 -1144 0 -77 5
-152 10 -167 21 -55 68 -69 114 -33 l26 20 0 176 c0 293 -45 509 -158 758 -86
190 -189 339 -347 504 -88 91 -92 98 -78 116 27 35 71 136 78 176 7 38 8 39
50 39 87 0 189 78 220 166 l13 39 100 17 c121 21 191 46 268 97 118 76 193
195 202 320 6 85 -5 107 -61 121 -106 26 -119 33 -181 90 -72 68 -102 75 -141
35 -42 -41 -34 -71 43 -145 44 -44 87 -74 125 -90 55 -24 58 -26 52 -55 -8
-45 -55 -106 -108 -142 -68 -46 -144 -71 -249 -84 -149 -17 -158 -19 -179 -40
-13 -13 -19 -33 -19 -65 0 -39 -5 -51 -35 -81 -37 -37 -40 -38 -158 -17 -32 5
-42 2 -63 -17 -21 -19 -24 -32 -25 -93 0 -39 -6 -87 -13 -106 l-13 -35 -7 47
c-9 58 -44 149 -79 205 -86 136 -272 243 -424 243 l-43 0 66 67 c140 143 258
367 304 576 7 31 16 57 20 57 4 0 24 -7 43 -15 90 -37 230 -7 306 67 204 195
57 533 -224 515 -38 -2 -78 -7 -87 -11 -15 -7 -18 -3 -18 22 0 30 1 30 32 21
68 -19 151 14 195 80 43 64 41 91 -18 266 -56 165 -79 205 -122 205 -37 0 -77
-36 -77 -69 0 -15 23 -92 50 -170 28 -79 48 -147 44 -152 -11 -19 -57 -7 -360
92 -328 107 -350 111 -376 66 -7 -12 -15 -62 -18 -112 -5 -84 -6 -90 -28 -93
-13 -2 -150 50 -312 117 -159 67 -298 121 -309 121 -10 0 -30 -9 -45 -21 -23
-18 -26 -27 -26 -84 0 -62 -14 -95 -42 -95 -6 0 -52 41 -102 90 -77 75 -97 90
-124 90 -45 0 -72 -30 -72 -79 0 -40 -20 -71 -45 -71 -22 0 -95 97 -127 170
-48 108 -53 114 -81 125 -36 12 -78 -10 -91 -48 -17 -47 37 -174 119 -281 33
-43 35 -51 35 -122 0 -69 -2 -75 -17 -68 -10 4 -49 9 -88 11 -281 18 -428
-320 -224 -515 76 -74 216 -104 306 -67 19 8 39 15 43 15 4 0 13 -26 20 -57
46 -209 164 -433 304 -576 l66 -67 -43 0 c-151 0 -338 -107 -424 -243 -35 -56
-70 -147 -79 -205 l-7 -47 -13 35 c-7 19 -13 67 -13 106 -1 61 -4 74 -25 93
-21 19 -31 22 -63 17 -118 -21 -121 -20 -158 17 -30 30 -35 42 -35 81 0 32 -6
52 -19 65 -21 21 -30 23 -179 40 -105 13 -181 38 -249 84 -53 36 -100 97 -108
142 -6 29 -3 31 51 54 110 48 210 164 308 359 65 129 91 199 233 607 146 422
214 596 296 760 138 279 273 438 446 529 93 48 179 69 286 69 111 0 178 -23
254 -88 69 -59 93 -59 162 0 205 175 568 88 786 -186 166 -210 275 -445 473
-1019 211 -614 222 -636 304 -599 13 7 30 24 36 39 10 23 3 47 -48 186 -33 87
-101 281 -152 429 -51 149 -117 333 -147 410 l-54 139 36 78 c44 97 81 236 93
348 20 195 -25 518 -80 578 -22 23 -27 24 -110 18 -202 -14 -401 -74 -570
-173 -70 -40 -81 -44 -110 -35 -167 52 -362 33 -488 -48 l-50 -32 -50 32
c-126 81 -321 100 -488 48 -30 -9 -39 -6 -92 26 -129 80 -314 145 -482 170
-146 22 -181 21 -213 -6z m2563 -198 c7 -30 16 -118 19 -195 6 -149 -8 -267
-44 -373 l-18 -52 -34 62 c-98 183 -250 369 -365 447 l-49 34 38 23 c79 48
315 114 395 111 l45 -2 13 -55z m-599 -1271 l163 -54 -5 -265 c-6 -351 -30
-476 -129 -675 -111 -224 -308 -399 -509 -451 -84 -22 -234 -22 -318 0 -201
52 -398 227 -509 451 -97 196 -122 324 -129 660 l-5 250 45 12 c25 7 61 26 80
42 l34 30 34 -36 c38 -39 101 -72 139 -73 79 0 173 65 186 129 4 17 8 31 10
31 2 0 109 -43 236 -96 277 -115 284 -117 338 -105 88 20 150 91 150 171 0 30
4 41 13 37 6 -2 86 -28 176 -58z m-1655 -299 c56 -21 66 -43 66 -138 0 -85 -1
-89 -30 -117 -40 -38 -119 -46 -168 -16 -45 29 -72 77 -72 131 0 106 104 178
204 140z m2164 -10 c45 -28 72 -76 72 -130 0 -54 -27 -102 -72 -131 -49 -30
-128 -22 -168 16 -29 28 -30 32 -30 115 0 81 2 88 28 112 15 14 34 28 42 31
34 12 96 6 128 -13z m-1508 -1273 c0 -21 -7 -25 -68 -36 -112 -20 -264 -68
-286 -91 -17 -17 -21 -31 -19 -80 11 -299 227 -566 533 -661 108 -34 292 -34
400 0 306 95 522 362 533 661 2 49 -2 63 -19 80 -22 23 -174 71 -286 91 -61
11 -68 15 -68 36 0 23 2 23 98 23 223 0 336 -48 419 -177 54 -85 66 -150 61
-342 -4 -121 -9 -178 -22 -211 -38 -103 -148 -205 -251 -232 -38 -10 -192 -13
-665 -13 -473 0 -627 3 -665 13 -103 27 -214 129 -251 232 -25 68 -32 355 -10
438 37 147 154 257 298 281 29 5 101 9 161 10 106 1 107 1 107 -22z m360 -36
c36 0 95 6 133 13 l67 13 0 -127 c0 -114 2 -130 21 -154 26 -33 73 -35 106 -4
18 17 23 32 23 71 l0 49 33 -7 c42 -8 191 -46 194 -49 8 -7 -33 -141 -60 -195
-41 -84 -159 -205 -242 -248 -168 -87 -382 -87 -550 0 -83 43 -201 164 -242
248 -27 54 -68 188 -60 195 3 3 152 41 195 49 l32 7 0 -48 c0 -35 6 -54 22
-71 30 -33 80 -31 107 3 19 24 21 40 21 154 l0 127 68 -13 c37 -7 96 -13 132
-13z"/>
<path d="M2116 3269 c-25 -19 -26 -25 -26 -113 0 -84 2 -95 23 -114 29 -27 67
-28 98 -3 19 16 24 30 27 90 5 83 -1 114 -28 141 -26 26 -60 25 -94 -1z"/>
<path d="M2910 3270 c-27 -27 -33 -58 -28 -141 3 -60 8 -74 27 -90 32 -26 73
-24 99 4 19 20 22 35 22 114 0 87 -1 93 -26 112 -34 26 -68 27 -94 1z"/>
<path d="M2323 2780 c-48 -20 -54 -70 -19 -147 45 -95 155 -139 239 -94 38 19
38 19 84 -1 62 -27 122 -20 171 19 80 65 108 171 56 212 -15 12 -34 21 -44 21
-26 0 -67 -36 -75 -67 -16 -66 -49 -70 -75 -9 -38 90 -106 97 -147 16 -13 -24
-27 -48 -33 -54 -14 -14 -47 19 -55 54 -3 16 -12 33 -18 39 -19 15 -60 21 -84
11z"/>
<path d="M1223 2688 c-22 -11 -68 -108 -116 -245 l-22 -62 21 -28 c28 -38 81
-43 110 -11 27 30 114 249 114 287 0 20 -9 36 -26 50 -29 23 -48 25 -81 9z"/>
<path d="M1461 2683 c-24 -21 -121 -254 -121 -293 0 -56 86 -93 123 -52 19 22
117 265 117 293 0 28 -44 69 -73 69 -14 0 -34 -8 -46 -17z"/>
<path d="M3565 2675 c-14 -13 -25 -33 -25 -44 0 -28 98 -271 117 -293 38 -42
123 -5 123 53 0 38 -97 272 -121 292 -30 24 -66 21 -94 -8z"/>
<path d="M3816 2679 c-17 -14 -26 -30 -26 -50 0 -38 87 -257 114 -287 29 -32
82 -27 110 11 l21 28 -22 62 c-51 147 -94 234 -119 246 -35 16 -47 14 -78 -10z"/>
<path d="M2515 871 c-126 -31 -184 -168 -123 -286 66 -127 270 -127 336 0 51
100 16 221 -78 270 -34 17 -99 25 -135 16z m75 -166 c26 -32 -13 -81 -47 -59
-35 22 -23 74 17 74 10 0 23 -7 30 -15z"/>
<path d="M907 846 c-21 -16 -48 -92 -75 -216 -33 -148 -42 -238 -42 -420 l0
-169 26 -20 c34 -26 64 -27 92 -1 27 25 30 49 36 255 4 176 18 272 62 426 19
66 22 92 15 112 -17 44 -76 61 -114 33z"/>
<path d="M2075 681 c-99 -46 -141 -158 -96 -256 70 -152 282 -152 352 0 75
162 -94 331 -256 256z m113 -179 c-2 -21 -9 -28 -30 -30 -39 -5 -56 30 -28 58
28 28 63 11 58 -28z"/>
<path d="M2885 681 c-99 -46 -141 -158 -96 -256 70 -152 282 -152 352 0 75
162 -94 331 -256 256z m115 -161 c13 -25 -10 -53 -41 -48 -30 4 -39 46 -14 64
20 15 42 8 55 -16z"/>
<path d="M2447 430 c-114 -44 -198 -160 -201 -275 -1 -48 2 -60 23 -76 56 -46
116 -13 131 71 17 93 74 144 160 144 86 0 143 -51 160 -144 16 -83 76 -116
131 -71 57 46 6 221 -86 296 -89 73 -216 95 -318 55z"/>
</g>
</svg>
